<svg xmlns="http://www.w3.org/2000/svg" width="180" height="18.97" viewBox="0 0 180 18.97">
  <path id="Path_1" data-name="Path 1" d="M-621.063-6.057V-7.5h-16.429v1.441h7.022v16.9h2.384v-16.9ZM-643.72,11.157h.131V-7.5h-1.205V6.52h-.1L-659.441-7.813h-.131V10.843h1.205V-3.175h.1Zm-34-.314h11.843V9.4h-9.459V1.725h8.123V.519h-8.123V-6.057h9.459V-7.5h-11.843Zm-7.588-5.516a9.071,9.071,0,0,0,.747-3.708A9.067,9.067,0,0,0-685.279-2a8.567,8.567,0,0,0-2.018-2.9A9.394,9.394,0,0,0-690.4-6.8a11.029,11.029,0,0,0-3.983-.695h-3.445v1.153h2.679a8.437,8.437,0,0,1,3.424.655,7.24,7.24,0,0,1,2.5,1.769A7.662,7.662,0,0,1-687.7-1.354a8.887,8.887,0,0,1,.523,3.026,9.52,9.52,0,0,1-.445,2.843A7.4,7.4,0,0,1-689.035,7.1a7.265,7.265,0,0,1-2.471,1.873,8.377,8.377,0,0,1-3.646.721h-2.679v1.153h3.76a9.983,9.983,0,0,0,3.695-.681,9.286,9.286,0,0,0,3.026-1.913,8.99,8.99,0,0,0,2.044-2.922m-23,5.516h2.384V-7.5H-708.3Zm-16.19-16.9h9.459V-7.5H-726.88V10.843h2.385V1.725h8.123V.519H-724.5Zm-11.1,17.215h.131V-7.5h-1.205V6.52h-.1L-751.313-7.813h-.131V10.843h1.205V-3.175h.1ZM-758.77,3.716a8.246,8.246,0,0,0,.275-2.044,9.217,9.217,0,0,0-.6-3.131,9.475,9.475,0,0,0-1.86-3.079,10.027,10.027,0,0,0-3.184-2.345,10.355,10.355,0,0,0-4.546-.93,9.985,9.985,0,0,0-4.454.917,9.543,9.543,0,0,0-3.066,2.319A9.176,9.176,0,0,0-777.976-1.5a9.958,9.958,0,0,0-.563,3.17,9.769,9.769,0,0,0,.563,3.131,9.34,9.34,0,0,0,1.769,3.079,9.6,9.6,0,0,0,3.066,2.345,9.868,9.868,0,0,0,4.454.93,10.964,10.964,0,0,0,3.184-.432,10.149,10.149,0,0,0,2.568-1.166,9.313,9.313,0,0,0,1.978-1.69,9.723,9.723,0,0,0,1.376-2.018,10.494,10.494,0,0,0,.812-2.136m-2.293-2.044a9.13,9.13,0,0,1-.6,3.367A8.152,8.152,0,0,1-763.3,7.673a7.462,7.462,0,0,1-2.411,1.716,7.065,7.065,0,0,1-2.922.616,6.861,6.861,0,0,1-2.908-.616,7.006,7.006,0,0,1-2.319-1.716,8.092,8.092,0,0,1-1.546-2.633,9.683,9.683,0,0,1-.564-3.367,9.685,9.685,0,0,1,.564-3.367,8.1,8.1,0,0,1,1.546-2.633,7.013,7.013,0,0,1,2.319-1.716,6.871,6.871,0,0,1,2.908-.616,7.076,7.076,0,0,1,2.922.616A7.469,7.469,0,0,1-763.3-4.328a8.155,8.155,0,0,1,1.638,2.633,9.131,9.131,0,0,1,.6,3.367m-36.91,2.987a7.865,7.865,0,0,1-.518-2.987,7.791,7.791,0,0,1,.518-2.987,8,8,0,0,1,1.585-2.725,7.641,7.641,0,0,1,2.62-1.887,8.729,8.729,0,0,1,3.616-.708,8.939,8.939,0,0,1,6.341,2.516l.786-.708a7.78,7.78,0,0,0-1-.917,8.086,8.086,0,0,0-1.638-.983,12.069,12.069,0,0,0-2.306-.773,13.024,13.024,0,0,0-3-.314,11.457,11.457,0,0,0-4.559.825,9.011,9.011,0,0,0-3.144,2.175,8.644,8.644,0,0,0-1.821,3.092,9.332,9.332,0,0,0-.575,3.393,8.771,8.771,0,0,0,.575,3.393,8.644,8.644,0,0,0,1.821,3.092,9.014,9.014,0,0,0,3.144,2.175,11.457,11.457,0,0,0,4.559.825,13.024,13.024,0,0,0,3-.314,12.069,12.069,0,0,0,2.306-.773,8.1,8.1,0,0,0,1.638-.983,7.78,7.78,0,0,0,1-.917l-.786-.708a8.939,8.939,0,0,1-6.341,2.516,8.729,8.729,0,0,1-3.616-.708,7.641,7.641,0,0,1-2.62-1.886,8,8,0,0,1-1.585-2.725" transform="translate(801.063 7.813)" fill="#736661"/>
</svg>
